<?xml version="1.0" encoding="UTF-8"?>
<!DOCTYPE svg PUBLIC "-//W3C//DTD SVG 1.1//EN" "http://www.w3.org/Graphics/SVG/1.1/DTD/svg11.dtd">
<svg xmlns="http://www.w3.org/2000/svg" version="1.1" width="512px" height="512px" style="shape-rendering:geometricPrecision; text-rendering:geometricPrecision; image-rendering:optimizeQuality; fill-rule:evenodd; clip-rule:evenodd" xmlns:xlink="http://www.w3.org/1999/xlink">
<g><path style="opacity:0.994" fill="#4caf50" d="M 233.5,-0.5 C 248.167,-0.5 262.833,-0.5 277.5,-0.5C 377.766,12.0408 449.266,64.0408 492,155.5C 502.296,180.684 508.796,206.684 511.5,233.5C 511.5,248.167 511.5,262.833 511.5,277.5C 498.959,377.766 446.959,449.266 355.5,492C 330.316,502.296 304.316,508.796 277.5,511.5C 262.833,511.5 248.167,511.5 233.5,511.5C 192.069,507.456 153.735,494.289 118.5,472C 116.966,471.077 115.299,470.577 113.5,470.5C 81.1056,480.631 48.7723,490.965 16.5,501.5C 26.2447,469.759 36.578,437.926 47.5,406C 20.3399,367.355 4.33989,324.522 -0.5,277.5C -0.5,262.833 -0.5,248.167 -0.5,233.5C 12.0408,133.234 64.0408,61.734 155.5,19C 180.684,8.70393 206.684,2.20393 233.5,-0.5 Z"/></g>
<g><path style="opacity:1" fill="#f9f9f9" d="M 151.5,116.5 C 157.176,116.334 162.843,116.501 168.5,117C 172.389,117.062 175.889,118.229 179,120.5C 189.808,143.119 199.808,166.119 209,189.5C 210.03,194.28 209.03,198.613 206,202.5C 200.04,210.128 193.707,217.462 187,224.5C 185.16,226.681 183.993,229.181 183.5,232C 206.013,277.507 241.013,309.507 288.5,328C 293.734,328.977 298.734,328.31 303.5,326C 311.098,317.738 317.932,308.905 324,299.5C 331.014,290.471 339.514,288.971 349.5,295C 367.5,303.667 385.5,312.333 403.5,321C 405.609,322.141 407.442,323.641 409,325.5C 412.431,358.714 398.598,381.214 367.5,393C 352.589,398.664 337.255,399.997 321.5,397C 274.255,386.615 232.588,365.615 196.5,334C 165.241,305.252 139.408,272.419 119,235.5C 110.565,217.764 106.565,199.098 107,179.5C 109.401,154.174 120.901,134.34 141.5,120C 144.98,118.897 148.313,117.731 151.5,116.5 Z"/></g>
</svg>
