<?xml version="1.0" encoding="UTF-8"?>
<!DOCTYPE svg PUBLIC "-//W3C//DTD SVG 1.1//EN" "http://www.w3.org/Graphics/SVG/1.1/DTD/svg11.dtd">
<svg xmlns="http://www.w3.org/2000/svg" version="1.1" width="512px" height="512px" style="shape-rendering:geometricPrecision; text-rendering:geometricPrecision; image-rendering:optimizeQuality; fill-rule:evenodd; clip-rule:evenodd" xmlns:xlink="http://www.w3.org/1999/xlink">
<g><path style="opacity:0.998" fill="#fff" d="M 52.5,-0.5 C 187.833,-0.5 323.167,-0.5 458.5,-0.5C 487.167,6.16667 504.833,23.8333 511.5,52.5C 511.5,187.833 511.5,323.167 511.5,458.5C 504.833,487.167 487.167,504.833 458.5,511.5C 422.833,511.5 387.167,511.5 351.5,511.5C 351.5,452.833 351.5,394.167 351.5,335.5C 367.5,335.5 383.5,335.5 399.5,335.5C 409.537,309.087 419.87,282.753 430.5,256.5C 404.175,255.5 377.842,255.167 351.5,255.5C 351.333,231.831 351.5,208.164 352,184.5C 353.819,179.664 357.319,176.831 362.5,176C 380.164,175.5 397.83,175.333 415.5,175.5C 415.5,148.833 415.5,122.167 415.5,95.5C 394.164,95.3334 372.831,95.5 351.5,96C 305.833,98.6768 275.333,121.51 260,164.5C 257.474,173.321 256.141,182.321 256,191.5C 255.5,212.831 255.333,234.164 255.5,255.5C 234.167,255.5 212.833,255.5 191.5,255.5C 191.5,282.167 191.5,308.833 191.5,335.5C 212.833,335.5 234.167,335.5 255.5,335.5C 255.5,394.167 255.5,452.833 255.5,511.5C 187.833,511.5 120.167,511.5 52.5,511.5C 23.8333,504.833 6.16667,487.167 -0.5,458.5C -0.5,323.167 -0.5,187.833 -0.5,52.5C 6.16667,23.8333 23.8333,6.16667 52.5,-0.5 Z"/></g>
</svg>
