<?xml version="1.0" encoding="UTF-8"?>
<!DOCTYPE svg PUBLIC "-//W3C//DTD SVG 1.1//EN" "http://www.w3.org/Graphics/SVG/1.1/DTD/svg11.dtd">
<svg xmlns="http://www.w3.org/2000/svg" version="1.1" width="512px" height="512px" style="shape-rendering:geometricPrecision; text-rendering:geometricPrecision; image-rendering:optimizeQuality; fill-rule:evenodd; clip-rule:evenodd" xmlns:xlink="http://www.w3.org/1999/xlink">
<g><path style="opacity:0.994" fill="#fff" d="M 44.5,-0.5 C 185.167,-0.5 325.833,-0.5 466.5,-0.5C 490.5,5.5 505.5,20.5 511.5,44.5C 511.5,185.167 511.5,325.833 511.5,466.5C 505.5,490.5 490.5,505.5 466.5,511.5C 325.833,511.5 185.167,511.5 44.5,511.5C 20.5,505.5 5.5,490.5 -0.5,466.5C -0.5,325.833 -0.5,185.167 -0.5,44.5C 5.5,20.5 20.5,5.5 44.5,-0.5 Z M 82.5,78.5 C 116.331,77.3358 150.331,77.1691 184.5,78C 213.391,119.225 241.891,160.725 270,202.5C 271.61,204.731 273.443,206.731 275.5,208.5C 312.833,165.167 350.167,121.833 387.5,78.5C 397.167,77.1667 406.833,77.1667 416.5,78.5C 373.633,128.198 330.966,178.031 288.5,228C 334.566,296.568 381.232,364.735 428.5,432.5C 394.505,433.667 360.505,433.833 326.5,433C 294.543,386.92 262.71,340.754 231,294.5C 190.812,340.387 150.979,386.553 111.5,433C 101.833,433.667 92.1667,433.667 82.5,433C 127.888,380.616 172.888,327.949 217.5,275C 172.652,209.332 127.652,143.832 82.5,78.5 Z"/></g>
<g><path style="opacity:0.962" fill="#fff" d="M 122.5,99.5 C 138.503,99.3334 154.503,99.5001 170.5,100C 243.29,203.746 315.956,307.579 388.5,411.5C 372.51,412.666 356.51,412.833 340.5,412C 339.667,411.167 338.833,410.333 338,409.5C 265.921,306.269 194.088,202.935 122.5,99.5 Z"/></g>
</svg>
