<?xml version="1.0" encoding="UTF-8"?>
<!DOCTYPE svg PUBLIC "-//W3C//DTD SVG 1.1//EN" "http://www.w3.org/Graphics/SVG/1.1/DTD/svg11.dtd">
<svg xmlns="http://www.w3.org/2000/svg" version="1.1" width="512px" height="512px" style="shape-rendering:geometricPrecision; text-rendering:geometricPrecision; image-rendering:optimizeQuality; fill-rule:evenodd; clip-rule:evenodd" xmlns:xlink="http://www.w3.org/1999/xlink">
<g><path style="opacity:0.991" fill="#fff" d="M 233.5,-0.5 C 248.167,-0.5 262.833,-0.5 277.5,-0.5C 377.766,12.0408 449.266,64.0408 492,155.5C 502.296,180.684 508.796,206.684 511.5,233.5C 511.5,248.167 511.5,262.833 511.5,277.5C 498.959,377.766 446.959,449.266 355.5,492C 330.316,502.296 304.316,508.796 277.5,511.5C 262.833,511.5 248.167,511.5 233.5,511.5C 192.069,507.456 153.735,494.289 118.5,472C 116.966,471.077 115.299,470.577 113.5,470.5C 81.1056,480.631 48.7723,490.965 16.5,501.5C 26.2447,469.759 36.578,437.926 47.5,406C 20.3399,367.355 4.33989,324.522 -0.5,277.5C -0.5,262.833 -0.5,248.167 -0.5,233.5C 12.0408,133.234 64.0408,61.734 155.5,19C 180.684,8.70393 206.684,2.20393 233.5,-0.5 Z M 150.5,117.5 C 157.841,117.334 165.174,117.5 172.5,118C 175.034,118.516 177.2,119.683 179,121.5C 190.094,144.849 199.927,168.682 208.5,193C 207.226,198.717 204.726,203.883 201,208.5C 196.101,213.309 191.435,218.309 187,223.5C 183.814,227.298 182.814,231.632 184,236.5C 208.321,280.151 243.821,310.985 290.5,329C 295.072,329.887 299.405,329.22 303.5,327C 311.098,318.738 317.932,309.905 324,300.5C 327.322,295.668 331.822,292.668 337.5,291.5C 361.977,300.822 385.477,312.155 408,325.5C 411.919,357.83 398.752,379.997 368.5,392C 354.662,397.977 340.329,399.644 325.5,397C 269.068,385.543 220.901,359.376 181,318.5C 161.738,297.953 144.405,275.953 129,252.5C 118.275,235.998 111.275,217.998 108,198.5C 104.964,169.601 113.797,145.101 134.5,125C 139.542,121.643 144.876,119.143 150.5,117.5 Z"/></g>
</svg>
